# xmcd
#
# Track frame offsets:
#	150
#	14619
#	30552
#	44580
#	58923
#	74826
#	91748
#	105321
#	118966
#	132268
#	147881
#	161278
#	182834
#	198730
#	220413
#	232922
#	245410
#	261177
#	274372
#
# Disc length: 3854 seconds
#
# Revision: 1
# Processed by: cddbd v1.5.2PL0 Copyright (c) Steve Scherf et al.
# Submitted via: audiograbber 1.83.01
#
DISCID=240f0c13
DTITLE=Campeoes Do Forro (Sel.by Jota Efe) - CAMPEOES DO FORRO {SUCESSOS} by Jo
DTITLE=ta Efe-19
DYEAR=2011
DGENRE=Forro
TTITLE0=Brincar De Amor - Campeoes Do Forro (Sel.by Jota Efe)
TTITLE1=Baba E Ronca - Campeoes Do Forro (Sel.by Jota Efe)
TTITLE2=Tapa Na Cara - Campeoes Do Forro (Sel.by Jota Efe)
TTITLE3=Vou Dar Uma Geral Na Minha Vida - Campeoes Do Forro (Sel.by Jota Efe)
TTITLE4=Alcatraz - Campeoes Do Forro (Sel.by Jota Efe)
TTITLE5=Espere Ai - Campeoes Do Forro (Sel.by Jota Efe)
TTITLE6=Urucubaca - Campeoes Do Forro (Sel.by Jota Efe)
TTITLE7=O Som Dos Campeoes - Campeoes Do Forro (Sel.by Jota Efe)
TTITLE8=Nao Adianta Chorar - Campeoes Do Forro (Sel.by Jota Efe)
TTITLE9=Caiu De Paraquedas - Campeoes Do Forro (Sel.by Jota Efe)
TTITLE10=Amo Noite E Dia - Campeoes Do Forro (Sel.by Jota Efe)
TTITLE11=Isso E Amor - Campeoes Do Forro (Sel.by Jota Efe)
TTITLE12=Nao Volte Atraz - Campeoes Do Forro (Sel.by Jota Efe)
TTITLE13=Canto, Bebo E Choro - Campeoes Do Forro (Sel.by Jota Efe)
TTITLE14=Sem Voce Eu Morro - Campeoes Do Forro (Sel.by Jota Efe)
TTITLE15=Beijando Outra - Campeoes Do Forro (Sel.by Jota Efe)
TTITLE16=Ja Nao Da Mais - Campeoes Do Forro (Sel.by Jota Efe)
TTITLE17=Deixa Eu Conquistar Voce - Campeoes Do Forro (Sel.by Jota Efe)
TTITLE18=Ta Na Cara - Campeoes Do Forro (Sel.by Jota Efe)
EXTD=
EXTT0=
EXTT1=
EXTT2=
EXTT3=
EXTT4=
EXTT5=
EXTT6=
EXTT7=
EXTT8=
EXTT9=
EXTT10=
EXTT11=
EXTT12=
EXTT13=
EXTT14=
EXTT15=
EXTT16=
EXTT17=
EXTT18=
PLAYORDER=
